<svg 
  xmlns="http://www.w3.org/2000/svg" xmlns:xlink="http://www.w3.org/1999/xlink"
>
  <defs>

    <!-- NAV -->
    <symbol id="nav-linkedin" viewBox="0 0 448 512">
      <path d="M416 32H31.9C14.3 32 0 46.5 0 64.3v383.4C0 465.5 14.3 480 31.9 480H416c17.6 0 32-14.5 32-32.3V64.3c0-17.8-14.4-32.3-32-32.3zM135.4 416H69V202.2h66.5V416zm-33.2-243c-21.3 0-38.5-17.3-38.5-38.5S80.9 96 102.2 96c21.2 0 38.5 17.3 38.5 38.5 0 21.3-17.2 38.5-38.5 38.5zm282.1 243h-66.4V312c0-24.8-.5-56.7-34.5-56.7-34.6 0-39.9 27-39.9 54.9V416h-66.4V202.2h63.7v29.2h.9c8.9-16.8 30.6-34.5 62.9-34.5 67.2 0 79.7 44.3 79.7 101.9V416z"></path>
    </symbol>

    <symbol id="nav-github" viewBox="0 0 496 512">
      <path d="M165.9 397.4c0 2-2.3 3.6-5.2 3.6-3.3.3-5.6-1.3-5.6-3.6 0-2 2.3-3.6 5.2-3.6 3-.3 5.6 1.3 5.6 3.6zm-31.1-4.5c-.7 2 1.3 4.3 4.3 4.9 2.6 1 5.6 0 6.2-2s-1.3-4.3-4.3-5.2c-2.6-.7-5.5.3-6.2 2.3zm44.2-1.7c-2.9.7-4.9 2.6-4.6 4.9.3 2 2.9 3.3 5.9 2.6 2.9-.7 4.9-2.6 4.6-4.6-.3-1.9-3-3.2-5.9-2.9zM244.8 8C106.1 8 0 113.3 0 252c0 110.9 69.8 205.8 169.5 239.2 12.8 2.3 17.3-5.6 17.3-12.1 0-6.2-.3-40.4-.3-61.4 0 0-70 15-84.7-29.8 0 0-11.4-29.1-27.8-36.6 0 0-22.9-15.7 1.6-15.4 0 0 24.9 2 38.6 25.8 21.9 38.6 58.6 27.5 72.9 20.9 2.3-16 8.8-27.1 16-33.7-55.9-6.2-112.3-14.3-112.3-110.5 0-27.5 7.6-41.3 23.6-58.9-2.6-6.5-11.1-33.3 2.6-67.9 20.9-6.5 69 27 69 27 20-5.6 41.5-8.5 62.8-8.5s42.8 2.9 62.8 8.5c0 0 48.1-33.6 69-27 13.7 34.7 5.2 61.4 2.6 67.9 16 17.7 25.8 31.5 25.8 58.9 0 96.5-58.9 104.2-114.8 110.5 9.2 7.9 17 22.9 17 46.4 0 33.7-.3 75.4-.3 83.6 0 6.5 4.6 14.4 17.3 12.1C428.2 457.8 496 362.9 496 252 496 113.3 383.5 8 244.8 8zM97.2 352.9c-1.3 1-1 3.3.7 5.2 1.6 1.6 3.9 2.3 5.2 1 1.3-1 1-3.3-.7-5.2-1.6-1.6-3.9-2.3-5.2-1zm-10.8-8.1c-.7 1.3.3 2.9 2.3 3.9 1.6 1 3.6.7 4.3-.7.7-1.3-.3-2.9-2.3-3.9-2-.6-3.6-.3-4.3.7zm32.4 35.6c-1.6 1.3-1 4.3 1.3 6.2 2.3 2.3 5.2 2.6 6.5 1 1.3-1.3.7-4.3-1.3-6.2-2.2-2.3-5.2-2.6-6.5-1zm-11.4-14.7c-1.6 1-1.6 3.6 0 5.9 1.6 2.3 4.3 3.3 5.6 2.3 1.6-1.3 1.6-3.9 0-6.2-1.4-2.3-4-3.3-5.6-2z"></path>
    </symbol>

    <!-- PROJECTS modal-icons -->
    <symbol id="modal-open" viewBox="0 0 448 512">
      <path d="M448 344v112a23.94 23.94 0 0 1-24 24H312c-21.39 0-32.09-25.9-17-41l36.2-36.2L224 295.6 116.77 402.9 153 439c15.09 15.1 4.39 41-17 41H24a23.94 23.94 0 0 1-24-24V344c0-21.4 25.89-32.1 41-17l36.19 36.2L184.46 256 77.18 148.7 41 185c-15.1 15.1-41 4.4-41-17V56a23.94 23.94 0 0 1 24-24h112c21.39 0 32.09 25.9 17 41l-36.2 36.2L224 216.4l107.23-107.3L295 73c-15.09-15.1-4.39-41 17-41h112a23.94 23.94 0 0 1 24 24v112c0 21.4-25.89 32.1-41 17l-36.19-36.2L263.54 256l107.28 107.3L407 327.1c15.1-15.2 41-4.5 41 16.9z"></path>
    </symbol>

    <symbol id="modal-close" viewBox="0 0 1000 1000">
      <path d="M500,442.7L79.3,22.6C63.4,6.7,37.7,6.7,21.9,22.5C6.1,38.3,6.1,64,22,79.9L442.6,500L22,920.1C6,936,6.1,961.6,21.9,977.5c15.8,15.8,41.6,15.8,57.4-0.1L500,557.3l420.7,420.1c16,15.9,41.6,15.9,57.4,0.1c15.8-15.8,15.8-41.5-0.1-57.4L557.4,500L978,79.9c16-15.9,15.9-41.5,0.1-57.4c-15.8-15.8-41.6-15.8-57.4,0.1L500,442.7L500,442.7z"/>
    </symbol>

    <!-- ABOUT skills-icons -->
    <symbol id="js-icon" viewBox="0 0 448 512">
      <path d="M400 32H48C21.5 32 0 53.5 0 80v352c0 26.5 21.5 48 48 48h352c26.5 0 48-21.5 48-48V80c0-26.5-21.5-48-48-48zM243.8 381.4c0 43.6-25.6 63.5-62.9 63.5-33.7 0-53.2-17.4-63.2-38.5l34.3-20.7c6.6 11.7 12.6 21.6 27.1 21.6 13.8 0 22.6-5.4 22.6-26.5V237.7h42.1v143.7zm99.6 63.5c-39.1 0-64.4-18.6-76.7-43l34.3-19.8c9 14.7 20.8 25.6 41.5 25.6 17.4 0 28.6-8.7 28.6-20.8 0-14.4-11.4-19.5-30.7-28l-10.5-4.5c-30.4-12.9-50.5-29.2-50.5-63.5 0-31.6 24.1-55.6 61.6-55.6 26.8 0 46 9.3 59.8 33.7L368 290c-7.2-12.9-15-18-27.1-18-12.3 0-20.1 7.8-20.1 18 0 12.6 7.8 17.7 25.9 25.6l10.5 4.5c35.8 15.3 55.9 31 55.9 66.2 0 37.8-29.8 58.6-69.7 58.6z"></path>
    </symbol>

    <symbol id="react-icon" viewBox="0 0 512 512">
      <path d="M418.2 177.2c-5.4-1.8-10.8-3.5-16.2-5.1.9-3.7 1.7-7.4 2.5-11.1 12.3-59.6 4.2-107.5-23.1-123.3-26.3-15.1-69.2.6-112.6 38.4-4.3 3.7-8.5 7.6-12.5 11.5-2.7-2.6-5.5-5.2-8.3-7.7-45.5-40.4-91.1-57.4-118.4-41.5-26.2 15.2-34 60.3-23 116.7 1.1 5.6 2.3 11.1 3.7 16.7-6.4 1.8-12.7 3.8-18.6 5.9C38.3 196.2 0 225.4 0 255.6c0 31.2 40.8 62.5 96.3 81.5 4.5 1.5 9 3 13.6 4.3-1.5 6-2.8 11.9-4 18-10.5 55.5-2.3 99.5 23.9 114.6 27 15.6 72.4-.4 116.6-39.1 3.5-3.1 7-6.3 10.5-9.7 4.4 4.3 9 8.4 13.6 12.4 42.8 36.8 85.1 51.7 111.2 36.6 27-15.6 35.8-62.9 24.4-120.5-.9-4.4-1.9-8.9-3-13.5 3.2-.9 6.3-1.9 9.4-2.9 57.7-19.1 99.5-50 99.5-81.7 0-30.3-39.4-59.7-93.8-78.4zM282.9 92.3c37.2-32.4 71.9-45.1 87.7-36 16.9 9.7 23.4 48.9 12.8 100.4-.7 3.4-1.4 6.7-2.3 10-22.2-5-44.7-8.6-67.3-10.6-13-18.6-27.2-36.4-42.6-53.1 3.9-3.7 7.7-7.2 11.7-10.7zM167.2 307.5c5.1 8.7 10.3 17.4 15.8 25.9-15.6-1.7-31.1-4.2-46.4-7.5 4.4-14.4 9.9-29.3 16.3-44.5 4.6 8.8 9.3 17.5 14.3 26.1zm-30.3-120.3c14.4-3.2 29.7-5.8 45.6-7.8-5.3 8.3-10.5 16.8-15.4 25.4-4.9 8.5-9.7 17.2-14.2 26-6.3-14.9-11.6-29.5-16-43.6zm27.4 68.9c6.6-13.8 13.8-27.3 21.4-40.6s15.8-26.2 24.4-38.9c15-1.1 30.3-1.7 45.9-1.7s31 .6 45.9 1.7c8.5 12.6 16.6 25.5 24.3 38.7s14.9 26.7 21.7 40.4c-6.7 13.8-13.9 27.4-21.6 40.8-7.6 13.3-15.7 26.2-24.2 39-14.9 1.1-30.4 1.6-46.1 1.6s-30.9-.5-45.6-1.4c-8.7-12.7-16.9-25.7-24.6-39s-14.8-26.8-21.5-40.6zm180.6 51.2c5.1-8.8 9.9-17.7 14.6-26.7 6.4 14.5 12 29.2 16.9 44.3-15.5 3.5-31.2 6.2-47 8 5.4-8.4 10.5-17 15.5-25.6zm14.4-76.5c-4.7-8.8-9.5-17.6-14.5-26.2-4.9-8.5-10-16.9-15.3-25.2 16.1 2 31.5 4.7 45.9 8-4.6 14.8-10 29.2-16.1 43.4zM256.2 118.3c10.5 11.4 20.4 23.4 29.6 35.8-19.8-.9-39.7-.9-59.5 0 9.8-12.9 19.9-24.9 29.9-35.8zM140.2 57c16.8-9.8 54.1 4.2 93.4 39 2.5 2.2 5 4.6 7.6 7-15.5 16.7-29.8 34.5-42.9 53.1-22.6 2-45 5.5-67.2 10.4-1.3-5.1-2.4-10.3-3.5-15.5-9.4-48.4-3.2-84.9 12.6-94zm-24.5 263.6c-4.2-1.2-8.3-2.5-12.4-3.9-21.3-6.7-45.5-17.3-63-31.2-10.1-7-16.9-17.8-18.8-29.9 0-18.3 31.6-41.7 77.2-57.6 5.7-2 11.5-3.8 17.3-5.5 6.8 21.7 15 43 24.5 63.6-9.6 20.9-17.9 42.5-24.8 64.5zm116.6 98c-16.5 15.1-35.6 27.1-56.4 35.3-11.1 5.3-23.9 5.8-35.3 1.3-15.9-9.2-22.5-44.5-13.5-92 1.1-5.6 2.3-11.2 3.7-16.7 22.4 4.8 45 8.1 67.9 9.8 13.2 18.7 27.7 36.6 43.2 53.4-3.2 3.1-6.4 6.1-9.6 8.9zm24.5-24.3c-10.2-11-20.4-23.2-30.3-36.3 9.6.4 19.5.6 29.5.6 10.3 0 20.4-.2 30.4-.7-9.2 12.7-19.1 24.8-29.6 36.4zm130.7 30c-.9 12.2-6.9 23.6-16.5 31.3-15.9 9.2-49.8-2.8-86.4-34.2-4.2-3.6-8.4-7.5-12.7-11.5 15.3-16.9 29.4-34.8 42.2-53.6 22.9-1.9 45.7-5.4 68.2-10.5 1 4.1 1.9 8.2 2.7 12.2 4.9 21.6 5.7 44.1 2.5 66.3zm18.2-107.5c-2.8.9-5.6 1.8-8.5 2.6-7-21.8-15.6-43.1-25.5-63.8 9.6-20.4 17.7-41.4 24.5-62.9 5.2 1.5 10.2 3.1 15 4.7 46.6 16 79.3 39.8 79.3 58 0 19.6-34.9 44.9-84.8 61.4zm-149.7-15c25.3 0 45.8-20.5 45.8-45.8s-20.5-45.8-45.8-45.8c-25.3 0-45.8 20.5-45.8 45.8s20.5 45.8 45.8 45.8z"></path>
    </symbol>

    <symbol id="git-icon" viewBox="0 0 448 512">
      <path d="M100.59 334.24c48.57 3.31 58.95 2.11 58.95 11.94 0 20-65.55 20.06-65.55 1.52.01-5.09 3.29-9.4 6.6-13.46zm27.95-116.64c-32.29 0-33.75 44.47-.75 44.47 32.51 0 31.71-44.47.75-44.47zM448 80v352a48 48 0 0 1-48 48H48a48 48 0 0 1-48-48V80a48 48 0 0 1 48-48h352a48 48 0 0 1 48 48zm-227 69.31c0 14.49 8.38 22.88 22.86 22.88 14.74 0 23.13-8.39 23.13-22.88S258.62 127 243.88 127c-14.48 0-22.88 7.84-22.88 22.31zM199.18 195h-49.55c-25-6.55-81.56-4.85-81.56 46.75 0 18.8 9.4 32 21.85 38.11C74.23 294.23 66.8 301 66.8 310.6c0 6.87 2.79 13.22 11.18 16.76-8.9 8.4-14 14.48-14 25.92C64 373.35 81.53 385 127.52 385c44.22 0 69.87-16.51 69.87-45.73 0-36.67-28.23-35.32-94.77-39.38l8.38-13.43c17 4.74 74.19 6.23 74.19-42.43 0-11.69-4.83-19.82-9.4-25.67l23.38-1.78zm84.34 109.84l-13-1.78c-3.82-.51-4.07-1-4.07-5.09V192.52h-52.6l-2.79 20.57c15.75 5.55 17 4.86 17 10.17V298c0 5.62-.31 4.58-17 6.87v20.06h72.42zM384 315l-6.87-22.37c-40.93 15.37-37.85-12.41-37.85-16.73v-60.72h37.85v-25.41h-35.82c-2.87 0-2 2.52-2-38.63h-24.18c-2.79 27.7-11.68 38.88-34 41.42v22.62c20.47 0 19.82-.85 19.82 2.54v66.57c0 28.72 11.43 40.91 41.67 40.91 14.45 0 30.45-4.83 41.38-10.2z"></path>
    </symbol>

    <symbol id="npm-icon" viewBox="0 0 576 512">
      <path d="M288 288h-32v-64h32v64zm288-128v192H288v32H160v-32H0V160h576zm-416 32H32v128h64v-96h32v96h32V192zm160 0H192v160h64v-32h64V192zm224 0H352v128h64v-96h32v96h32v-96h32v96h32V192z"></path>
    </symbol>

    <symbol id="html-icon" viewBox="0 0 384 512">
      <path d="M0 32l34.9 395.8L191.5 480l157.6-52.2L384 32H0zm308.2 127.9H124.4l4.1 49.4h175.6l-13.6 148.4-97.9 27v.3h-1.1l-98.7-27.3-6-75.8h47.7L138 320l53.5 14.5 53.7-14.5 6-62.2H84.3L71.5 112.2h241.1l-4.4 47.7z"></path>
    </symbol>

    <symbol id="css-icon" viewBox="0 0 384 512">
      <path d="M0 32l34.9 395.8L192 480l157.1-52.2L384 32H0zm313.1 80l-4.8 47.3L193 208.6l-.3.1h111.5l-12.8 146.6-98.2 28.7-98.8-29.2-6.4-73.9h48.9l3.2 38.3 52.6 13.3 54.7-15.4 3.7-61.6-166.3-.5v-.1l-.2.1-3.6-46.3L193.1 162l6.5-2.7H76.7L70.9 112h242.2z"></path>
    </symbol>

    <symbol id="sass-icon" viewBox="0 0 547.8 410.6">
      <path d="M471.4,236c-19.1,0.1-35.7,4.7-49.6,11.5c-5.1-10.1-10.2-19.1-11.1-25.7c-1-7.7-2.2-12.4-1-21.6  c1.2-9.2,6.6-22.3,6.5-23.3s-1.2-5.7-12.2-5.8c-11-0.1-20.5,2.1-21.6,5c-1.1,2.9-3.2,9.5-4.6,16.3c-1.9,10-22,45.7-33.5,64.4  c-3.7-7.3-6.9-13.7-7.6-18.8c-1-7.7-2.2-12.4-1-21.6c1.2-9.2,6.6-22.3,6.5-23.3c-0.1-1-1.2-5.7-12.2-5.8c-11-0.1-20.5,2.1-21.6,5  c-1.1,2.9-2.3,9.7-4.6,16.3c-2.3,6.6-29,66.2-36,81.6c-3.6,7.9-6.7,14.2-8.9,18.5c0,0,0,0,0,0s-0.1,0.3-0.4,0.8  c-1.9,3.7-3,5.7-3,5.7s0,0,0,0.1c-1.5,2.7-3.1,5.2-3.9,5.2c-0.6,0-1.7-7.2,0.2-17c4-20.7,13.5-52.9,13.4-54c0-0.6,1.8-6.2-6.2-9.1  c-7.8-2.9-10.6,1.9-11.3,1.9c-0.7,0-1.2,1.7-1.2,1.7s8.7-36.2-16.6-36.2c-15.8,0-37.6,17.3-48.4,32.9c-6.8,3.7-21.3,11.6-36.8,20.1  c-5.9,3.3-12,6.6-17.7,9.7c-0.4-0.4-0.8-0.9-1.2-1.3c-30.6-32.7-87.2-55.8-84.8-99.7c0.9-16,6.4-58,108.7-109  C233.9,19,300.9,30.5,312.5,56c16.6,36.4-35.9,104-122.9,113.8c-33.2,3.7-50.6-9.1-55-13.9c-4.6-5-5.3-5.3-7-4.3c-2.8,1.5-1,6,0,8.6  c2.6,6.8,13.3,18.8,31.4,24.7c16,5.2,54.9,8.1,102-10.1c52.7-20.4,93.9-77.1,81.8-124.6C330.7,2,250.7-13.9,175,13  C130,29,81.2,54.2,46.1,87c-41.7,39-48.3,72.9-45.6,87.1c9.7,50.4,79.2,83.2,107,107.5c-1.4,0.8-2.7,1.5-3.8,2.1  c-13.9,6.9-66.9,34.6-80.1,63.9c-15,33.2,2.4,57,13.9,60.2c35.7,9.9,72.4-7.9,92.1-37.3c19.7-29.4,17.3-67.6,8.2-85.1  c-0.1-0.2-0.2-0.4-0.4-0.6c3.6-2.1,7.3-4.3,10.9-6.4c7.1-4.2,14.1-8.1,20.1-11.3c-3.4,9.3-5.9,20.4-7.1,36.4  c-1.5,18.8,6.2,43.2,16.3,52.8c4.5,4.2,9.8,4.3,13.2,4.3c11.8,0,17.1-9.8,23-21.4c7.2-14.2,13.7-30.7,13.7-30.7s-8.1,44.6,13.9,44.6  c8,0,16.1-10.4,19.7-15.7c0,0.1,0,0.1,0,0.1s0.2-0.3,0.6-1c0.8-1.3,1.3-2.1,1.3-2.1s0-0.1,0-0.2c3.2-5.6,10.4-18.3,21.1-39.4  c13.8-27.2,27.1-61.2,27.1-61.2s1.2,8.3,5.3,22.1c2.4,8.1,7.4,17,11.4,25.6c-3.2,4.5-5.2,7-5.2,7s0,0,0.1,0.1  c-2.6,3.4-5.4,7.1-8.5,10.7c-10.9,13-23.9,27.9-25.7,32.2c-2.1,5.1-1.6,8.8,2.4,11.8c2.9,2.2,8.1,2.5,13.4,2.2  c9.8-0.7,16.7-3.1,20.1-4.6c5.3-1.9,11.5-4.8,17.3-9.1c10.7-7.9,17.2-19.2,16.6-34.1c-0.3-8.2-3-16.4-6.3-24.1  c1-1.4,1.9-2.8,2.9-4.2c16.9-24.7,30-51.8,30-51.8s1.2,8.3,5.3,22.1c2,7,6.1,14.6,9.7,22c-15.9,12.9-25.7,27.9-29.2,37.7  c-6.3,18.2-1.4,26.4,7.9,28.3c4.2,0.9,10.2-1.1,14.6-3c5.6-1.8,12.2-4.9,18.5-9.5c10.7-7.9,21-18.9,20.4-33.8  c-0.3-6.8-2.1-13.5-4.6-20c13.5-5.6,30.9-8.7,53.1-6.1c47.6,5.6,57,35.3,55.2,47.8c-1.8,12.5-11.8,19.3-15.1,21.4  c-3.3,2.1-4.4,2.8-4.1,4.3c0.4,2.2,2,2.1,4.8,1.7c3.9-0.7,25-10.1,25.9-33.1C548.9,267.8,520.9,235.7,471.4,236z M104.2,359.8  C88.4,377,66.4,383.5,56.9,378c-10.2-5.9-6.2-31.3,13.2-49.5c11.8-11.1,27-21.4,37.1-27.7c2.3-1.4,5.7-3.4,9.8-5.9  c0.7-0.4,1.1-0.6,1.1-0.6l0,0c0.8-0.5,1.6-1,2.4-1.5C127.6,318.8,120.8,341.7,104.2,359.8z M219.2,281.6c-5.5,13.4-17,47.7-24,45.8  c-6-1.6-9.7-27.6-1.2-53.3c4.3-12.9,13.4-28.3,18.7-34.3c8.6-9.6,18.1-12.8,20.4-8.9C236,236,222.6,273.2,219.2,281.6z M314.1,327  c-2.3,1.2-4.5,2-5.5,1.4c-0.7-0.4,1-2,1-2s11.9-12.8,16.6-18.6c2.7-3.4,5.9-7.4,9.3-11.9c0,0.4,0,0.9,0,1.3  C335.5,312.5,320.7,322.8,314.1,327z M387.3,310.3c-1.7-1.2-1.4-5.2,4.3-17.7c2.2-4.9,7.4-13.1,16.3-21c1,3.2,1.7,6.3,1.6,9.2  C409.4,300.1,395.6,307.3,387.3,310.3z"/>
    </symbol>

    <symbol id="redux-icon" viewBox="0 0 256 244">
      <path d="M177.380953,169.732752 C186.828305,168.755405 193.995262,160.610839 193.669491,150.83736 C193.34372,141.063881 185.199451,133.245097 175.426328,133.245097 L174.774787,133.245097 C164.675893,133.57088 156.857395,142.041229 157.183166,152.14049 C157.508937,157.02723 159.463561,161.262404 162.395498,164.194448 C151.319292,186.021884 134.379213,201.985233 108.969093,215.342321 C91.7032429,224.464235 73.7858511,227.722061 55.8684592,225.441583 C41.208775,223.486887 29.8067984,216.971234 22.6398417,206.220408 C12.2151773,190.257058 11.237865,172.990579 20.0336756,155.724099 C26.22332,143.344359 35.9964428,134.222445 42.1860873,129.661488 C40.8830043,125.426314 38.9283797,118.259096 37.9510674,113.046574 C-9.28569288,147.253751 -4.39913147,193.514885 9.934782,215.342321 C20.6852171,231.631453 42.5118581,241.730715 66.6188943,241.730715 C73.1343096,241.730715 79.6497248,241.079149 86.16514,239.450236 C127.863797,231.30567 159.463561,206.54619 177.380953,169.732752 Z M234.716607,129.335706 C209.958029,100.341051 173.471704,84.3777023 131.773046,84.3777023 L126.560714,84.3777023 C123.628777,78.5136149 117.439133,74.6042233 110.597947,74.6042233 L109.946406,74.6042233 C99.8475119,74.9300059 92.0290137,83.4003544 92.3547844,93.499616 C92.6805552,103.273095 100.824824,111.091878 110.597947,111.091878 L111.249489,111.091878 C118.416445,110.766096 124.60609,106.205139 127.212256,100.015269 L133.07613,100.015269 C157.834707,100.015269 181.290202,107.182487 202.465302,121.19114 C218.75384,131.941967 230.481587,145.95062 236.997002,162.891317 C242.535105,176.574188 242.209334,189.931276 236.345461,201.333668 C227.223879,218.600148 211.912654,228.047844 191.714866,228.047844 C178.684036,228.047844 166.304747,224.138452 159.789332,221.206409 C156.205854,224.464235 149.690438,229.676757 145.129648,232.934584 C159.13779,239.450236 173.471704,243.033845 187.154076,243.033845 C218.428069,243.033845 241.557793,225.767366 250.353603,208.500886 C259.800955,189.605493 259.149414,157.02723 234.716607,129.335706 Z M69.2250604,175.271057 C69.5508312,185.044536 77.6951002,192.86332 87.468223,192.86332 L88.1197645,192.86332 C98.2186581,192.537537 106.037156,184.067188 105.711386,173.967927 C105.385615,164.194448 97.2413458,156.375664 87.468223,156.375664 L86.8166815,156.375664 C86.16514,156.375664 85.1878277,156.375664 84.5362862,156.701447 C71.179685,134.548228 65.6415821,110.440313 67.5962066,84.3777023 C68.8992897,64.8307442 75.4147049,47.8900472 86.8166815,33.881394 C96.2640336,21.8274365 114.507196,15.9633491 126.886485,15.6375664 C161.418186,14.9860012 176.07787,57.9893089 177.055182,75.2557885 C181.290202,76.2331364 188.457159,78.5136149 193.34372,80.142528 C189.434471,27.3657413 156.857395,0 125.583402,0 C96.2640336,0 69.2250604,21.1758712 58.4746253,52.4510041 C43.4891703,94.1511813 53.2622932,134.222445 71.5054558,165.823361 C69.876602,168.103839 68.8992897,171.687448 69.2250604,175.271057 Z"/>
    </symbol>

    <symbol id="bootstrap-icon" viewBox="0 0 256 256">
      <path d="M0,222.991225 C0,241.223474 14.7785318,256 33.0087747,256 L222.991225,256 C241.223474,256 256,241.221468 256,222.991225 L256,33.0087747 C256,14.7765263 241.221468,0 222.991225,0 L33.0087747,0 C14.7765263,0 0,14.7785318 0,33.0087747 L0,222.991225 Z"/>
      <path d="M106.157563,113.238095 L106.157563,76.9845938 L138.069328,76.9845938 C141.108559,76.9845938 144.039202,77.2378593 146.861345,77.7443978 C149.683488,78.2509362 152.179961,79.1554557 154.35084,80.4579832 C156.52172,81.7605107 158.258397,83.5695496 159.560924,85.8851541 C160.863452,88.2007585 161.514706,91.1675823 161.514706,94.7857143 C161.514706,101.298352 159.560944,106.001853 155.653361,108.896359 C151.745779,111.790864 146.752832,113.238095 140.67437,113.238095 L106.157563,113.238095 L106.157563,113.238095 Z M72.07493,50.5 L72.07493,205.5 L147.186975,205.5 C154.133788,205.5 160.899594,204.631661 167.484594,202.894958 C174.069594,201.158255 179.93088,198.480877 185.068627,194.862745 C190.206375,191.244613 194.294803,186.577293 197.334034,180.860644 C200.373264,175.143996 201.892857,168.37819 201.892857,160.563025 C201.892857,150.866431 199.541107,142.581033 194.837535,135.706583 C190.133963,128.832132 183.00635,124.020088 173.454482,121.270308 C180.401295,117.941627 185.647508,113.672295 189.193277,108.462185 C192.739047,103.252075 194.511905,96.7395349 194.511905,88.9243697 C194.511905,81.6881057 193.317939,75.6097352 190.929972,70.6890756 C188.542005,65.7684161 185.177193,61.8247114 180.835434,58.8578431 C176.493676,55.8909749 171.283644,53.756309 165.205182,52.4537815 C159.12672,51.151254 152.397096,50.5 145.016106,50.5 L72.07493,50.5 L72.07493,50.5 Z M106.157563,179.015406 L106.157563,136.466387 L143.279412,136.466387 C150.660401,136.466387 156.594049,138.166883 161.080532,141.567927 C165.567016,144.968971 167.810224,150.649353 167.810224,158.609244 C167.810224,162.661552 167.122789,165.990183 165.747899,168.595238 C164.373009,171.200293 162.527789,173.262597 160.212185,174.782213 C157.89658,176.301828 155.219203,177.387252 152.179972,178.038515 C149.140741,178.689779 145.956833,179.015406 142.628151,179.015406 L106.157563,179.015406 L106.157563,179.015406 Z" fill="#FFFFFF"/>
    </symbol>

    <!-- CONTACT -->
    <symbol id="location-icon" viewBox="0 0 384 512">
      <path d="M172.268 501.67C26.97 291.031 0 269.413 0 192 0 85.961 85.961 0 192 0s192 85.961 192 192c0 77.413-26.97 99.031-172.268 309.67-9.535 13.774-29.93 13.773-39.464 0zM192 272c44.183 0 80-35.817 80-80s-35.817-80-80-80-80 35.817-80 80 35.817 80 80 80z"></path>
    </symbol>

    <symbol id="skype-icon" viewBox="0 0 50 50">
      <path d="M 14.28125 0 C 6.410156 0 0 6.324219 0 14.09375 C 0 16.476563 0.621094 18.800781 1.78125 20.875 C 1.507813 22.3125 1.375 23.792969 1.375 25.25 C 1.375 38.25 12.074219 48.8125 25.25 48.8125 C 26.601563 48.8125 27.953125 48.722656 29.28125 48.5 C 31.257813 49.488281 33.480469 50 35.71875 50 C 43.589844 50 50 43.675781 50 35.90625 C 50 33.820313 49.539063 31.828125 48.65625 29.96875 C 48.976563 28.433594 49.15625 26.847656 49.15625 25.25 C 49.15625 12.253906 38.425781 1.6875 25.25 1.6875 C 24.011719 1.6875 22.761719 1.78125 21.53125 1.96875 C 19.335938 0.683594 16.847656 0 14.28125 0 Z M 25.09375 9.375 C 27.140625 9.375 28.933594 9.597656 30.4375 10.0625 C 31.945313 10.523438 33.222656 11.136719 34.21875 11.90625 C 35.226563 12.683594 35.996094 13.511719 36.46875 14.375 C 36.945313 15.246094 37.1875 16.132813 37.1875 16.96875 C 37.1875 17.777344 36.84375 18.484375 36.21875 19.125 C 35.59375 19.765625 34.808594 20.09375 33.875 20.09375 C 33.027344 20.09375 32.367188 19.898438 31.90625 19.5 C 31.476563 19.125 31.023438 18.554688 30.53125 17.71875 C 29.960938 16.648438 29.292969 15.777344 28.5 15.1875 C 27.730469 14.613281 26.421875 14.34375 24.65625 14.34375 C 23.015625 14.34375 21.675781 14.640625 20.6875 15.28125 C 19.730469 15.898438 19.28125 16.628906 19.28125 17.46875 C 19.28125 17.984375 19.441406 18.410156 19.75 18.78125 C 20.078125 19.171875 20.511719 19.496094 21.09375 19.78125 C 21.695313 20.078125 22.316406 20.332031 22.9375 20.5 C 23.574219 20.671875 24.660156 20.945313 26.125 21.28125 C 27.976563 21.675781 29.679688 22.089844 31.1875 22.5625 C 32.710938 23.046875 34.019531 23.652344 35.09375 24.34375 C 36.1875 25.046875 37.070313 25.949219 37.6875 27.03125 C 38.304688 28.113281 38.59375 29.441406 38.59375 31 C 38.589844 32.859375 38.066406 34.546875 37 36.03125 C 35.9375 37.511719 34.371094 38.703125 32.34375 39.53125 C 30.335938 40.351563 27.925781 40.75 25.1875 40.75 C 21.898438 40.75 19.148438 40.191406 17 39.0625 C 15.460938 38.246094 14.175781 37.117188 13.21875 35.75 C 12.242188 34.367188 11.75 33.011719 11.75 31.6875 C 11.75 30.863281 12.085938 30.152344 12.71875 29.5625 C 13.347656 28.984375 14.136719 28.6875 15.09375 28.6875 C 15.878906 28.6875 16.574219 28.914063 17.125 29.375 C 17.65625 29.816406 18.105469 30.472656 18.46875 31.3125 C 18.875 32.230469 19.308594 32.980469 19.78125 33.59375 C 20.226563 34.175781 20.863281 34.679688 21.6875 35.0625 C 22.515625 35.453125 23.652344 35.65625 25.03125 35.65625 C 26.925781 35.65625 28.460938 35.253906 29.625 34.46875 C 30.765625 33.703125 31.34375 32.785156 31.34375 31.65625 C 31.34375 30.765625 31.03125 30.046875 30.4375 29.5 C 29.8125 28.925781 28.992188 28.492188 28 28.1875 C 26.957031 27.871094 25.558594 27.519531 23.8125 27.15625 C 21.4375 26.652344 19.417969 26.046875 17.8125 25.375 C 16.167969 24.683594 14.84375 23.722656 13.875 22.53125 C 12.890625 21.316406 12.375 19.820313 12.375 18.03125 C 12.375 16.324219 12.902344 14.761719 13.9375 13.4375 C 14.957031 12.125 16.449219 11.105469 18.375 10.40625 C 20.273438 9.710938 22.539063 9.375 25.09375 9.375 Z"/>
    </symbol>

    <symbol id="email-icon" viewBox="0 0 512 512">
      <path d="M502.3 190.8c3.9-3.1 9.7-.2 9.7 4.7V400c0 26.5-21.5 48-48 48H48c-26.5 0-48-21.5-48-48V195.6c0-5 5.7-7.8 9.7-4.7 22.4 17.4 52.1 39.5 154.1 113.6 21.1 15.4 56.7 47.8 92.2 47.6 35.7.3 72-32.8 92.3-47.6 102-74.1 131.6-96.3 154-113.7zM256 320c23.2.4 56.6-29.2 73.4-41.4 132.7-96.3 142.8-104.7 173.4-128.7 5.8-4.5 9.2-11.5 9.2-18.9v-19c0-26.5-21.5-48-48-48H48C21.5 64 0 85.5 0 112v19c0 7.4 3.4 14.3 9.2 18.9 30.6 23.9 40.7 32.4 173.4 128.7 16.8 12.2 50.2 41.8 73.4 41.4z"></path>
    </symbol>

    <symbol id="github-icon" viewBox="0 0 496 512">
      <path d="M165.9 397.4c0 2-2.3 3.6-5.2 3.6-3.3.3-5.6-1.3-5.6-3.6 0-2 2.3-3.6 5.2-3.6 3-.3 5.6 1.3 5.6 3.6zm-31.1-4.5c-.7 2 1.3 4.3 4.3 4.9 2.6 1 5.6 0 6.2-2s-1.3-4.3-4.3-5.2c-2.6-.7-5.5.3-6.2 2.3zm44.2-1.7c-2.9.7-4.9 2.6-4.6 4.9.3 2 2.9 3.3 5.9 2.6 2.9-.7 4.9-2.6 4.6-4.6-.3-1.9-3-3.2-5.9-2.9zM244.8 8C106.1 8 0 113.3 0 252c0 110.9 69.8 205.8 169.5 239.2 12.8 2.3 17.3-5.6 17.3-12.1 0-6.2-.3-40.4-.3-61.4 0 0-70 15-84.7-29.8 0 0-11.4-29.1-27.8-36.6 0 0-22.9-15.7 1.6-15.4 0 0 24.9 2 38.6 25.8 21.9 38.6 58.6 27.5 72.9 20.9 2.3-16 8.8-27.1 16-33.7-55.9-6.2-112.3-14.3-112.3-110.5 0-27.5 7.6-41.3 23.6-58.9-2.6-6.5-11.1-33.3 2.6-67.9 20.9-6.5 69 27 69 27 20-5.6 41.5-8.5 62.8-8.5s42.8 2.9 62.8 8.5c0 0 48.1-33.6 69-27 13.7 34.7 5.2 61.4 2.6 67.9 16 17.7 25.8 31.5 25.8 58.9 0 96.5-58.9 104.2-114.8 110.5 9.2 7.9 17 22.9 17 46.4 0 33.7-.3 75.4-.3 83.6 0 6.5 4.6 14.4 17.3 12.1C428.2 457.8 496 362.9 496 252 496 113.3 383.5 8 244.8 8zM97.2 352.9c-1.3 1-1 3.3.7 5.2 1.6 1.6 3.9 2.3 5.2 1 1.3-1 1-3.3-.7-5.2-1.6-1.6-3.9-2.3-5.2-1zm-10.8-8.1c-.7 1.3.3 2.9 2.3 3.9 1.6 1 3.6.7 4.3-.7.7-1.3-.3-2.9-2.3-3.9-2-.6-3.6-.3-4.3.7zm32.4 35.6c-1.6 1.3-1 4.3 1.3 6.2 2.3 2.3 5.2 2.6 6.5 1 1.3-1.3.7-4.3-1.3-6.2-2.2-2.3-5.2-2.6-6.5-1zm-11.4-14.7c-1.6 1-1.6 3.6 0 5.9 1.6 2.3 4.3 3.3 5.6 2.3 1.6-1.3 1.6-3.9 0-6.2-1.4-2.3-4-3.3-5.6-2z"></path>
    </symbol>

    <symbol id="linkedin-icon" viewBox="0 0 448 512">
      <path d="M100.28 448H7.4V148.9h92.88zM53.79 108.1C24.09 108.1 0 83.5 0 53.8a53.79 53.79 0 0 1 107.58 0c0 29.7-24.1 54.3-53.79 54.3zM447.9 448h-92.68V302.4c0-34.7-.7-79.2-48.29-79.2-48.29 0-55.69 37.7-55.69 76.7V448h-92.78V148.9h89.08v40.8h1.3c12.4-23.5 42.69-48.3 87.88-48.3 94 0 111.28 61.9 111.28 142.3V448z"></path>
    </symbol>

  </defs>
</svg>
